  0
SECTION
  2
HEADER
  9
$ANGBASE
  50
0.0
  9
$ANGDIR
  70
  1
  9
$MEASUREMENT
  70
0
  0
ENDSEC
  0
SECTION
  2
TABLES
  0
TABLE
  2
LTYPE
  70
4
  0
LTYPE
  5
40F
  2
CONTINUOUS
  70
0
  3
Solid line
  72
65
  73
0
  40
0.0
  0
LTYPE
  5
410
  2
DASHDOT
 70
0
  3
Dash Dot ____ _ ____ _
 72
65
 73
4
 40
2.0
 49
1.25
 49
-0.25
 49
0.25
 49
-0.25
  0
LTYPE
  5
411
  2
DASHED
 70
0
  3
Dashed __ __ __ __ __
 72
65
 73
2
 40
0.75
 49
0.5
 49
-0.25
  0
LTYPE
  5
43B
  2
DOTTED
 70
0
  3
Dotted .  .  .  .
 72
65
 73
2
 40
0.2
 49
0.0
 49
-0.2
  0
ENDTAB
  0
TABLE
  2
STYLE
  70
4
  0
STYLE
  2
KICAD
  70
0
  40
0
  41
1
  42
1
  50
0
  71
0
  3
isocp.shx
  0
STYLE
  2
KICADB
  70
0
  40
0
  41
1
  42
1
  50
0
  71
0
  3
isocp.shx
  0
STYLE
  2
KICADI
  70
0
  40
0
  41
1
  42
1
  50
15
  71
0
  3
isocp.shx
  0
STYLE
  2
KICADBI
  70
0
  40
0
  41
1
  42
1
  50
15
  71
0
  3
isocp.shx
  0
ENDTAB
  0
TABLE
  2
LAYER
  70
30
  0
LAYER
  2
BLACK
  70
0
  62
7
  6
CONTINUOUS
  0
LAYER
  2
GRAY1
  70
0
  62
251
  6
CONTINUOUS
  0
LAYER
  2
GRAY2
  70
0
  62
8
  6
CONTINUOUS
  0
LAYER
  2
GRAY3
  70
0
  62
9
  6
CONTINUOUS
  0
LAYER
  2
WHITE
  70
0
  62
7
  6
CONTINUOUS
  0
LAYER
  2
LYELLOW
  70
0
  62
51
  6
CONTINUOUS
  0
LAYER
  2
BLUE1
  70
0
  62
178
  6
CONTINUOUS
  0
LAYER
  2
GREEN1
  70
0
  62
98
  6
CONTINUOUS
  0
LAYER
  2
CYAN1
  70
0
  62
138
  6
CONTINUOUS
  0
LAYER
  2
RED1
  70
0
  62
18
  6
CONTINUOUS
  0
LAYER
  2
MAGENTA1
  70
0
  62
228
  6
CONTINUOUS
  0
LAYER
  2
BROWN1
  70
0
  62
58
  6
CONTINUOUS
  0
LAYER
  2
BLUE2
  70
0
  62
5
  6
CONTINUOUS
  0
LAYER
  2
GREEN2
  70
0
  62
3
  6
CONTINUOUS
  0
LAYER
  2
CYAN2
  70
0
  62
4
  6
CONTINUOUS
  0
LAYER
  2
RED2
  70
0
  62
1
  6
CONTINUOUS
  0
LAYER
  2
MAGENTA2
  70
0
  62
6
  6
CONTINUOUS
  0
LAYER
  2
BROWN2
  70
0
  62
54
  6
CONTINUOUS
  0
LAYER
  2
BLUE3
  70
0
  62
171
  6
CONTINUOUS
  0
LAYER
  2
GREEN3
  70
0
  62
91
  6
CONTINUOUS
  0
LAYER
  2
CYAN3
  70
0
  62
131
  6
CONTINUOUS
  0
LAYER
  2
RED3
  70
0
  62
11
  6
CONTINUOUS
  0
LAYER
  2
MAGENTA3
  70
0
  62
221
  6
CONTINUOUS
  0
LAYER
  2
YELLOW3
  70
0
  62
2
  6
CONTINUOUS
  0
LAYER
  2
BLUE4
  70
0
  62
5
  6
CONTINUOUS
  0
LAYER
  2
GREEN4
  70
0
  62
3
  6
CONTINUOUS
  0
LAYER
  2
CYAN4
  70
0
  62
4
  6
CONTINUOUS
  0
LAYER
  2
RED4
  70
0
  62
1
  6
CONTINUOUS
  0
LAYER
  2
MAGENTA4
  70
0
  62
6
  6
CONTINUOUS
  0
LAYER
  2
YELLOW4
  70
0
  62
2
  6
CONTINUOUS
  0
ENDTAB
  0
ENDSEC
  0
SECTION
  2
ENTITIES
0
LINE
8
BLACK
6
CONTINUOUS
10
114.478
20
-139.501
11
114.469
21
-139.5
0
LINE
8
BLACK
6
CONTINUOUS
10
114.469
20
-139.5
11
113.817
21
-139.344
0
LINE
8
BLACK
6
CONTINUOUS
10
113.817
20
-139.344
11
113.816
21
-139.344
0
LINE
8
BLACK
6
CONTINUOUS
10
113.816
20
-139.344
11
113.808
21
-139.34
0
LINE
8
BLACK
6
CONTINUOUS
10
113.808
20
-139.34
11
113.8
21
-139.337
0
LINE
8
BLACK
6
CONTINUOUS
10
113.8
20
-139.337
11
113.203
21
-139.03
0
LINE
8
BLACK
6
CONTINUOUS
10
113.203
20
-139.03
11
113.202
21
-139.029
0
LINE
8
BLACK
6
CONTINUOUS
10
113.202
20
-139.029
11
113.195
21
-139.024
0
LINE
8
BLACK
6
CONTINUOUS
10
113.195
20
-139.024
11
113.188
21
-139.019
0
LINE
8
BLACK
6
CONTINUOUS
10
113.188
20
-139.019
11
112.682
21
-138.578
0
LINE
8
BLACK
6
CONTINUOUS
10
112.682
20
-138.578
11
112.682
21
-138.578
0
LINE
8
BLACK
6
CONTINUOUS
10
112.682
20
-138.578
11
112.676
21
-138.571
0
LINE
8
BLACK
6
CONTINUOUS
10
112.676
20
-138.571
11
112.67
21
-138.565
0
LINE
8
BLACK
6
CONTINUOUS
10
112.67
20
-138.565
11
112.284
21
-138.015
0
LINE
8
BLACK
6
CONTINUOUS
10
112.284
20
-138.015
11
112.284
21
-138.015
0
LINE
8
BLACK
6
CONTINUOUS
10
112.284
20
-138.015
11
112.28
21
-138.007
0
LINE
8
BLACK
6
CONTINUOUS
10
112.28
20
-138.007
11
112.276
21
-138
0
LINE
8
BLACK
6
CONTINUOUS
10
112.276
20
-138
11
112.032
21
-137.374
0
LINE
8
BLACK
6
CONTINUOUS
10
112.032
20
-137.374
11
112.032
21
-137.373
0
LINE
8
BLACK
6
CONTINUOUS
10
112.032
20
-137.373
11
112.03
21
-137.365
0
LINE
8
BLACK
6
CONTINUOUS
10
112.03
20
-137.365
11
112.027
21
-137.357
0
LINE
8
BLACK
6
CONTINUOUS
10
112.027
20
-137.357
11
111.945
21
-136.727
0
LINE
8
BLACK
6
CONTINUOUS
10
111.945
20
-136.727
11
99.5972
21
-136.727
0
LINE
8
BLACK
6
CONTINUOUS
10
99.5972
20
-136.727
11
96.5719
21
-139.5
0
LINE
8
BLACK
6
CONTINUOUS
10
96.5719
20
-139.5
11
93.7813
21
-142.291
0
LINE
8
BLACK
6
CONTINUOUS
10
93.7813
20
-142.291
11
93.775
21
-142.298
0
LINE
8
BLACK
6
CONTINUOUS
10
93.775
20
-142.298
11
93.7663
21
-142.303
0
LINE
8
BLACK
6
CONTINUOUS
10
93.7663
20
-142.303
11
93.7582
21
-142.309
0
LINE
8
BLACK
6
CONTINUOUS
10
93.7582
20
-142.309
11
93.755
21
-142.31
0
LINE
8
BLACK
6
CONTINUOUS
10
93.755
20
-142.31
11
93.752
21
-142.312
0
LINE
8
BLACK
6
CONTINUOUS
10
93.752
20
-142.312
11
93.7422
21
-142.313
0
LINE
8
BLACK
6
CONTINUOUS
10
93.7422
20
-142.313
11
93.7326
21
-142.316
0
LINE
8
BLACK
6
CONTINUOUS
10
93.7326
20
-142.316
11
93.7227
21
-142.315
0
LINE
8
BLACK
6
CONTINUOUS
10
93.7227
20
-142.315
11
69.8623
21
-142.315
0
LINE
8
BLACK
6
CONTINUOUS
10
69.8623
20
-142.315
11
69.8615
21
-142.315
0
LINE
8
BLACK
6
CONTINUOUS
10
69.8615
20
-142.315
11
69.8492
21
-142.315
0
LINE
8
BLACK
6
CONTINUOUS
10
69.8492
20
-142.315
11
69.8434
21
-142.315
0
LINE
8
BLACK
6
CONTINUOUS
10
69.8434
20
-142.315
11
69.8426
21
-142.315
0
LINE
8
BLACK
6
CONTINUOUS
10
69.8426
20
-142.315
11
69.835
21
-142.315
0
LINE
8
BLACK
6
CONTINUOUS
10
69.835
20
-142.315
11
69.8296
21
-142.313
0
LINE
8
BLACK
6
CONTINUOUS
10
69.8296
20
-142.313
11
69.824
21
-142.312
0
LINE
8
BLACK
6
CONTINUOUS
10
69.824
20
-142.312
11
69.8174
21
-142.308
0
LINE
8
BLACK
6
CONTINUOUS
10
69.8174
20
-142.308
11
69.8104
21
-142.305
0
LINE
8
BLACK
6
CONTINUOUS
10
69.8104
20
-142.305
11
69.8061
21
-142.301
0
LINE
8
BLACK
6
CONTINUOUS
10
69.8061
20
-142.301
11
69.801
21
-142.298
0
LINE
8
BLACK
6
CONTINUOUS
10
69.801
20
-142.298
11
69.7962
21
-142.293
0
LINE
8
BLACK
6
CONTINUOUS
10
69.7962
20
-142.293
11
69.7955
21
-142.292
0
LINE
8
BLACK
6
CONTINUOUS
10
69.7955
20
-142.292
11
69.792
21
-142.288
0
LINE
8
BLACK
6
CONTINUOUS
10
69.792
20
-142.288
11
69.784
21
-142.278
0
LINE
8
BLACK
6
CONTINUOUS
10
69.784
20
-142.278
11
69.7837
21
-142.277
0
LINE
8
BLACK
6
CONTINUOUS
10
69.7837
20
-142.277
11
68.7801
21
-141.023
0
LINE
8
BLACK
6
CONTINUOUS
10
68.7801
20
-141.023
11
68.7757
21
-141.019
0
LINE
8
BLACK
6
CONTINUOUS
10
68.7757
20
-141.019
11
68.7719
21
-141.012
0
LINE
8
BLACK
6
CONTINUOUS
10
68.7719
20
-141.012
11
68.7713
21
-141.012
0
LINE
8
BLACK
6
CONTINUOUS
10
68.7713
20
-141.012
11
68.7686
21
-141.007
0
LINE
8
BLACK
6
CONTINUOUS
10
68.7686
20
-141.007
11
68.7624
21
-140.996
0
LINE
8
BLACK
6
CONTINUOUS
10
68.7624
20
-140.996
11
68.7623
21
-140.995
0
LINE
8
BLACK
6
CONTINUOUS
10
68.7623
20
-140.995
11
68.7618
21
-140.994
0
LINE
8
BLACK
6
CONTINUOUS
10
68.7618
20
-140.994
11
68.76
21
-140.982
0
LINE
8
BLACK
6
CONTINUOUS
10
68.76
20
-140.982
11
68.759
21
-140.977
0
LINE
8
BLACK
6
CONTINUOUS
10
68.759
20
-140.977
11
68.759
21
-140.976
0
LINE
8
BLACK
6
CONTINUOUS
10
68.759
20
-140.976
11
68.7579
21
-140.968
0
LINE
8
BLACK
6
CONTINUOUS
10
68.7579
20
-140.968
11
68.759
21
-140.963
0
LINE
8
BLACK
6
CONTINUOUS
10
68.759
20
-140.963
11
68.759
21
-137.699
0
LINE
8
BLACK
6
CONTINUOUS
10
68.759
20
-137.699
11
67.7869
21
-136.727
0
LINE
8
BLACK
6
CONTINUOUS
10
67.7869
20
-136.727
11
66.6145
21
-136.727
0
LINE
8
BLACK
6
CONTINUOUS
10
66.6145
20
-136.727
11
66.5418
21
-137.327
0
LINE
8
BLACK
6
CONTINUOUS
10
66.5418
20
-137.327
11
66.5417
21
-137.328
0
LINE
8
BLACK
6
CONTINUOUS
10
66.5417
20
-137.328
11
66.5396
21
-137.337
0
LINE
8
BLACK
6
CONTINUOUS
10
66.5396
20
-137.337
11
66.5375
21
-137.345
0
LINE
8
BLACK
6
CONTINUOUS
10
66.5375
20
-137.345
11
66.3002
21
-137.973
0
LINE
8
BLACK
6
CONTINUOUS
10
66.3002
20
-137.973
11
66.2999
21
-137.974
0
LINE
8
BLACK
6
CONTINUOUS
10
66.2999
20
-137.974
11
66.2959
21
-137.981
0
LINE
8
BLACK
6
CONTINUOUS
10
66.2959
20
-137.981
11
66.2919
21
-137.989
0
LINE
8
BLACK
6
CONTINUOUS
10
66.2919
20
-137.989
11
65.9116
21
-138.542
0
LINE
8
BLACK
6
CONTINUOUS
10
65.9116
20
-138.542
11
65.9112
21
-138.543
0
LINE
8
BLACK
6
CONTINUOUS
10
65.9112
20
-138.543
11
65.9054
21
-138.549
0
LINE
8
BLACK
6
CONTINUOUS
10
65.9054
20
-138.549
11
65.8997
21
-138.556
0
LINE
8
BLACK
6
CONTINUOUS
10
65.8997
20
-138.556
11
65.3985
21
-139.002
0
LINE
8
BLACK
6
CONTINUOUS
10
65.3985
20
-139.002
11
65.3979
21
-139.003
0
LINE
8
BLACK
6
CONTINUOUS
10
65.3979
20
-139.003
11
65.3907
21
-139.008
0
LINE
8
BLACK
6
CONTINUOUS
10
65.3907
20
-139.008
11
65.3837
21
-139.013
0
LINE
8
BLACK
6
CONTINUOUS
10
65.3837
20
-139.013
11
64.7904
21
-139.327
0
LINE
8
BLACK
6
CONTINUOUS
10
64.7904
20
-139.327
11
64.7904
21
-139.327
0
LINE
8
BLACK
6
CONTINUOUS
10
64.7904
20
-139.327
11
64.7904
21
-139.327
0
LINE
8
BLACK
6
CONTINUOUS
10
64.7904
20
-139.327
11
64.7897
21
-139.327
0
LINE
8
BLACK
6
CONTINUOUS
10
64.7897
20
-139.327
11
64.7816
21
-139.33
0
LINE
8
BLACK
6
CONTINUOUS
10
64.7816
20
-139.33
11
64.7736
21
-139.333
0
LINE
8
BLACK
6
CONTINUOUS
10
64.7736
20
-139.333
11
64.1225
21
-139.497
0
LINE
8
BLACK
6
CONTINUOUS
10
64.1225
20
-139.497
11
64.1217
21
-139.497
0
LINE
8
BLACK
6
CONTINUOUS
10
64.1217
20
-139.497
11
64.1131
21
-139.498
0
LINE
8
BLACK
6
CONTINUOUS
10
64.1131
20
-139.498
11
64.1046
21
-139.499
0
LINE
8
BLACK
6
CONTINUOUS
10
64.1046
20
-139.499
11
63.4333
21
-139.502
0
LINE
8
BLACK
6
CONTINUOUS
10
63.4333
20
-139.502
11
63.4325
21
-139.502
0
LINE
8
BLACK
6
CONTINUOUS
10
63.4325
20
-139.502
11
63.4239
21
-139.501
0
LINE
8
BLACK
6
CONTINUOUS
10
63.4239
20
-139.501
11
63.4154
21
-139.5
0
LINE
8
BLACK
6
CONTINUOUS
10
63.4154
20
-139.5
11
62.7626
21
-139.344
0
LINE
8
BLACK
6
CONTINUOUS
10
62.7626
20
-139.344
11
62.7618
21
-139.344
0
LINE
8
BLACK
6
CONTINUOUS
10
62.7618
20
-139.344
11
62.7537
21
-139.34
0
LINE
8
BLACK
6
CONTINUOUS
10
62.7537
20
-139.34
11
62.7457
21
-139.337
0
LINE
8
BLACK
6
CONTINUOUS
10
62.7457
20
-139.337
11
62.1491
21
-139.03
0
LINE
8
BLACK
6
CONTINUOUS
10
62.1491
20
-139.03
11
62.1484
21
-139.029
0
LINE
8
BLACK
6
CONTINUOUS
10
62.1484
20
-139.029
11
62.1413
21
-139.024
0
LINE
8
BLACK
6
CONTINUOUS
10
62.1413
20
-139.024
11
62.1342
21
-139.019
0
LINE
8
BLACK
6
CONTINUOUS
10
62.1342
20
-139.019
11
61.6283
21
-138.578
0
LINE
8
BLACK
6
CONTINUOUS
10
61.6283
20
-138.578
11
61.6278
21
-138.578
0
LINE
8
BLACK
6
CONTINUOUS
10
61.6278
20
-138.578
11
61.622
21
-138.571
0
LINE
8
BLACK
6
CONTINUOUS
10
61.622
20
-138.571
11
61.6163
21
-138.565
0
LINE
8
BLACK
6
CONTINUOUS
10
61.6163
20
-138.565
11
61.2303
21
-138.015
0
LINE
8
BLACK
6
CONTINUOUS
10
61.2303
20
-138.015
11
61.2298
21
-138.015
0
LINE
8
BLACK
6
CONTINUOUS
10
61.2298
20
-138.015
11
61.2258
21
-138.007
0
LINE
8
BLACK
6
CONTINUOUS
10
61.2258
20
-138.007
11
61.2218
21
-138
0
LINE
8
BLACK
6
CONTINUOUS
10
61.2218
20
-138
11
60.9779
21
-137.374
0
LINE
8
BLACK
6
CONTINUOUS
10
60.9779
20
-137.374
11
60.9776
21
-137.373
0
LINE
8
BLACK
6
CONTINUOUS
10
60.9776
20
-137.373
11
60.9756
21
-137.365
0
LINE
8
BLACK
6
CONTINUOUS
10
60.9756
20
-137.365
11
60.9734
21
-137.357
0
LINE
8
BLACK
6
CONTINUOUS
10
60.9734
20
-137.357
11
60.8858
21
-136.691
0
LINE
8
BLACK
6
CONTINUOUS
10
60.8858
20
-136.691
11
60.8857
21
-136.69
0
LINE
8
BLACK
6
CONTINUOUS
10
60.8857
20
-136.69
11
60.8857
21
-136.686
0
LINE
8
BLACK
6
CONTINUOUS
10
60.8857
20
-136.686
11
60.8852
21
-136.682
0
LINE
8
BLACK
6
CONTINUOUS
10
60.8852
20
-136.682
11
60.885
21
-136.659
0
LINE
8
BLACK
6
CONTINUOUS
10
60.885
20
-136.659
11
60.885
21
-136.659
0
LINE
8
BLACK
6
CONTINUOUS
10
60.885
20
-136.659
11
60.885
21
-132.111
0
LINE
8
BLACK
6
CONTINUOUS
10
60.885
20
-132.111
11
57.6073
21
-128.833
0
LINE
8
BLACK
6
CONTINUOUS
10
57.6073
20
-128.833
11
57.5997
21
-128.827
0
LINE
8
BLACK
6
CONTINUOUS
10
57.5997
20
-128.827
11
57.5947
21
-128.818
0
LINE
8
BLACK
6
CONTINUOUS
10
57.5947
20
-128.818
11
57.589
21
-128.81
0
LINE
8
BLACK
6
CONTINUOUS
10
57.589
20
-128.81
11
57.5881
21
-128.807
0
LINE
8
BLACK
6
CONTINUOUS
10
57.5881
20
-128.807
11
57.5864
21
-128.804
0
LINE
8
BLACK
6
CONTINUOUS
10
57.5864
20
-128.804
11
57.5847
21
-128.794
0
LINE
8
BLACK
6
CONTINUOUS
10
57.5847
20
-128.794
11
57.5821
21
-128.785
0
LINE
8
BLACK
6
CONTINUOUS
10
57.5821
20
-128.785
11
57.583
21
-128.775
0
LINE
8
BLACK
6
CONTINUOUS
10
57.583
20
-128.775
11
57.583
21
-121.923
0
LINE
8
BLACK
6
CONTINUOUS
10
57.583
20
-121.923
11
57.5821
21
-121.913
0
LINE
8
BLACK
6
CONTINUOUS
10
57.5821
20
-121.913
11
57.5847
21
-121.904
0
LINE
8
BLACK
6
CONTINUOUS
10
57.5847
20
-121.904
11
57.5864
21
-121.894
0
LINE
8
BLACK
6
CONTINUOUS
10
57.5864
20
-121.894
11
57.5881
21
-121.891
0
LINE
8
BLACK
6
CONTINUOUS
10
57.5881
20
-121.891
11
57.589
21
-121.888
0
LINE
8
BLACK
6
CONTINUOUS
10
57.589
20
-121.888
11
57.5947
21
-121.88
0
LINE
8
BLACK
6
CONTINUOUS
10
57.5947
20
-121.88
11
57.5997
21
-121.871
0
LINE
8
BLACK
6
CONTINUOUS
10
57.5997
20
-121.871
11
57.6073
21
-121.865
0
LINE
8
BLACK
6
CONTINUOUS
10
57.6073
20
-121.865
11
60.6507
21
-118.821
0
LINE
8
BLACK
6
CONTINUOUS
10
60.6507
20
-118.821
11
60.657
21
-118.814
0
LINE
8
BLACK
6
CONTINUOUS
10
60.657
20
-118.814
11
60.6657
21
-118.809
0
LINE
8
BLACK
6
CONTINUOUS
10
60.6657
20
-118.809
11
60.6738
21
-118.803
0
LINE
8
BLACK
6
CONTINUOUS
10
60.6738
20
-118.803
11
60.677
21
-118.802
0
LINE
8
BLACK
6
CONTINUOUS
10
60.677
20
-118.802
11
60.68
21
-118.8
0
LINE
8
BLACK
6
CONTINUOUS
10
60.68
20
-118.8
11
60.6898
21
-118.799
0
LINE
8
BLACK
6
CONTINUOUS
10
60.6898
20
-118.799
11
60.6994
21
-118.796
0
LINE
8
BLACK
6
CONTINUOUS
10
60.6994
20
-118.796
11
60.7093
21
-118.797
0
LINE
8
BLACK
6
CONTINUOUS
10
60.7093
20
-118.797
11
117.853
21
-118.797
0
LINE
8
BLACK
6
CONTINUOUS
10
117.853
20
-118.797
11
117.863
21
-118.796
0
LINE
8
BLACK
6
CONTINUOUS
10
117.863
20
-118.796
11
117.872
21
-118.799
0
LINE
8
BLACK
6
CONTINUOUS
10
117.872
20
-118.799
11
117.882
21
-118.8
0
LINE
8
BLACK
6
CONTINUOUS
10
117.882
20
-118.8
11
117.885
21
-118.802
0
LINE
8
BLACK
6
CONTINUOUS
10
117.885
20
-118.802
11
117.888
21
-118.803
0
LINE
8
BLACK
6
CONTINUOUS
10
117.888
20
-118.803
11
117.896
21
-118.809
0
LINE
8
BLACK
6
CONTINUOUS
10
117.896
20
-118.809
11
117.905
21
-118.814
0
LINE
8
BLACK
6
CONTINUOUS
10
117.905
20
-118.814
11
117.911
21
-118.821
0
LINE
8
BLACK
6
CONTINUOUS
10
117.911
20
-118.821
11
120.955
21
-121.865
0
LINE
8
BLACK
6
CONTINUOUS
10
120.955
20
-121.865
11
120.962
21
-121.871
0
LINE
8
BLACK
6
CONTINUOUS
10
120.962
20
-121.871
11
120.967
21
-121.88
0
LINE
8
BLACK
6
CONTINUOUS
10
120.967
20
-121.88
11
120.973
21
-121.888
0
LINE
8
BLACK
6
CONTINUOUS
10
120.973
20
-121.888
11
120.974
21
-121.891
0
LINE
8
BLACK
6
CONTINUOUS
10
120.974
20
-121.891
11
120.976
21
-121.894
0
LINE
8
BLACK
6
CONTINUOUS
10
120.976
20
-121.894
11
120.977
21
-121.904
0
LINE
8
BLACK
6
CONTINUOUS
10
120.977
20
-121.904
11
120.98
21
-121.913
0
LINE
8
BLACK
6
CONTINUOUS
10
120.98
20
-121.913
11
120.979
21
-121.923
0
LINE
8
BLACK
6
CONTINUOUS
10
120.979
20
-121.923
11
120.979
21
-128.775
0
LINE
8
BLACK
6
CONTINUOUS
10
120.979
20
-128.775
11
120.98
21
-128.785
0
LINE
8
BLACK
6
CONTINUOUS
10
120.98
20
-128.785
11
120.977
21
-128.794
0
LINE
8
BLACK
6
CONTINUOUS
10
120.977
20
-128.794
11
120.976
21
-128.804
0
LINE
8
BLACK
6
CONTINUOUS
10
120.976
20
-128.804
11
120.974
21
-128.807
0
LINE
8
BLACK
6
CONTINUOUS
10
120.974
20
-128.807
11
120.973
21
-128.81
0
LINE
8
BLACK
6
CONTINUOUS
10
120.973
20
-128.81
11
120.967
21
-128.818
0
LINE
8
BLACK
6
CONTINUOUS
10
120.967
20
-128.818
11
120.962
21
-128.827
0
LINE
8
BLACK
6
CONTINUOUS
10
120.962
20
-128.827
11
120.955
21
-128.833
0
LINE
8
BLACK
6
CONTINUOUS
10
120.955
20
-128.833
11
118.422
21
-131.366
0
LINE
8
BLACK
6
CONTINUOUS
10
118.422
20
-131.366
11
118.422
21
-131.366
0
LINE
8
BLACK
6
CONTINUOUS
10
118.422
20
-131.366
11
117.677
21
-132.111
0
LINE
8
BLACK
6
CONTINUOUS
10
117.677
20
-132.111
11
117.677
21
-136.659
0
LINE
8
BLACK
6
CONTINUOUS
10
117.677
20
-136.659
11
117.676
21
-136.663
0
LINE
8
BLACK
6
CONTINUOUS
10
117.676
20
-136.663
11
117.596
21
-137.327
0
LINE
8
BLACK
6
CONTINUOUS
10
117.596
20
-137.327
11
117.596
21
-137.328
0
LINE
8
BLACK
6
CONTINUOUS
10
117.596
20
-137.328
11
117.594
21
-137.337
0
LINE
8
BLACK
6
CONTINUOUS
10
117.594
20
-137.337
11
117.592
21
-137.345
0
LINE
8
BLACK
6
CONTINUOUS
10
117.592
20
-137.345
11
117.354
21
-137.973
0
LINE
8
BLACK
6
CONTINUOUS
10
117.354
20
-137.973
11
117.354
21
-137.974
0
LINE
8
BLACK
6
CONTINUOUS
10
117.354
20
-137.974
11
117.35
21
-137.981
0
LINE
8
BLACK
6
CONTINUOUS
10
117.35
20
-137.981
11
117.346
21
-137.989
0
LINE
8
BLACK
6
CONTINUOUS
10
117.346
20
-137.989
11
116.966
21
-138.542
0
LINE
8
BLACK
6
CONTINUOUS
10
116.966
20
-138.542
11
116.965
21
-138.543
0
LINE
8
BLACK
6
CONTINUOUS
10
116.965
20
-138.543
11
116.959
21
-138.549
0
LINE
8
BLACK
6
CONTINUOUS
10
116.959
20
-138.549
11
116.954
21
-138.556
0
LINE
8
BLACK
6
CONTINUOUS
10
116.954
20
-138.556
11
116.452
21
-139.002
0
LINE
8
BLACK
6
CONTINUOUS
10
116.452
20
-139.002
11
116.452
21
-139.003
0
LINE
8
BLACK
6
CONTINUOUS
10
116.452
20
-139.003
11
116.445
21
-139.008
0
LINE
8
BLACK
6
CONTINUOUS
10
116.445
20
-139.008
11
116.438
21
-139.013
0
LINE
8
BLACK
6
CONTINUOUS
10
116.438
20
-139.013
11
115.844
21
-139.327
0
LINE
8
BLACK
6
CONTINUOUS
10
115.844
20
-139.327
11
115.844
21
-139.327
0
LINE
8
BLACK
6
CONTINUOUS
10
115.844
20
-139.327
11
115.844
21
-139.327
0
LINE
8
BLACK
6
CONTINUOUS
10
115.844
20
-139.327
11
115.844
21
-139.327
0
LINE
8
BLACK
6
CONTINUOUS
10
115.844
20
-139.327
11
115.836
21
-139.33
0
LINE
8
BLACK
6
CONTINUOUS
10
115.836
20
-139.33
11
115.828
21
-139.333
0
LINE
8
BLACK
6
CONTINUOUS
10
115.828
20
-139.333
11
115.176
21
-139.497
0
LINE
8
BLACK
6
CONTINUOUS
10
115.176
20
-139.497
11
115.176
21
-139.497
0
LINE
8
BLACK
6
CONTINUOUS
10
115.176
20
-139.497
11
115.167
21
-139.498
0
LINE
8
BLACK
6
CONTINUOUS
10
115.167
20
-139.498
11
115.159
21
-139.499
0
LINE
8
BLACK
6
CONTINUOUS
10
115.159
20
-139.499
11
114.487
21
-139.502
0
LINE
8
BLACK
6
CONTINUOUS
10
114.487
20
-139.502
11
114.486
21
-139.502
0
LINE
8
BLACK
6
CONTINUOUS
10
114.486
20
-139.502
11
114.478
21
-139.501
0
LINE
8
BLACK
6
CONTINUOUS
10
112.089
20
-136.676
11
112.175
21
-137.328
0
LINE
8
BLACK
6
CONTINUOUS
10
112.175
20
-137.328
11
112.412
21
-137.937
0
LINE
8
BLACK
6
CONTINUOUS
10
112.412
20
-137.937
11
112.788
21
-138.471
0
LINE
8
BLACK
6
CONTINUOUS
10
112.788
20
-138.471
11
113.28
21
-138.9
0
LINE
8
BLACK
6
CONTINUOUS
10
113.28
20
-138.9
11
113.86
21
-139.2
0
LINE
8
BLACK
6
CONTINUOUS
10
113.86
20
-139.2
11
114.496
21
-139.352
0
LINE
8
BLACK
6
CONTINUOUS
10
114.496
20
-139.352
11
115.149
21
-139.349
0
LINE
8
BLACK
6
CONTINUOUS
10
115.149
20
-139.349
11
115.782
21
-139.19
0
LINE
8
BLACK
6
CONTINUOUS
10
115.782
20
-139.19
11
116.359
21
-138.884
0
LINE
8
BLACK
6
CONTINUOUS
10
116.359
20
-138.884
11
116.847
21
-138.45
0
LINE
8
BLACK
6
CONTINUOUS
10
116.847
20
-138.45
11
117.217
21
-137.911
0
LINE
8
BLACK
6
CONTINUOUS
10
117.217
20
-137.911
11
117.448
21
-137.3
0
LINE
8
BLACK
6
CONTINUOUS
10
117.448
20
-137.3
11
117.527
21
-136.647
0
LINE
8
BLACK
6
CONTINUOUS
10
117.527
20
-136.647
11
117.527
21
-132.083
0
LINE
8
BLACK
6
CONTINUOUS
10
117.527
20
-132.083
11
117.526
21
-132.073
0
LINE
8
BLACK
6
CONTINUOUS
10
117.526
20
-132.073
11
117.529
21
-132.064
0
LINE
8
BLACK
6
CONTINUOUS
10
117.529
20
-132.064
11
117.53
21
-132.054
0
LINE
8
BLACK
6
CONTINUOUS
10
117.53
20
-132.054
11
117.532
21
-132.051
0
LINE
8
BLACK
6
CONTINUOUS
10
117.532
20
-132.051
11
117.533
21
-132.048
0
LINE
8
BLACK
6
CONTINUOUS
10
117.533
20
-132.048
11
117.539
21
-132.04
0
LINE
8
BLACK
6
CONTINUOUS
10
117.539
20
-132.04
11
117.544
21
-132.031
0
LINE
8
BLACK
6
CONTINUOUS
10
117.544
20
-132.031
11
117.551
21
-132.025
0
LINE
8
BLACK
6
CONTINUOUS
10
117.551
20
-132.025
11
118.316
21
-131.26
0
LINE
8
BLACK
6
CONTINUOUS
10
118.316
20
-131.26
11
118.316
21
-131.26
0
LINE
8
BLACK
6
CONTINUOUS
10
118.316
20
-131.26
11
120.829
21
-128.747
0
LINE
8
BLACK
6
CONTINUOUS
10
120.829
20
-128.747
11
120.829
21
-121.951
0
LINE
8
BLACK
6
CONTINUOUS
10
120.829
20
-121.951
11
117.825
21
-118.947
0
LINE
8
BLACK
6
CONTINUOUS
10
117.825
20
-118.947
11
60.7371
21
-118.947
0
LINE
8
BLACK
6
CONTINUOUS
10
60.7371
20
-118.947
11
57.733
21
-121.951
0
LINE
8
BLACK
6
CONTINUOUS
10
57.733
20
-121.951
11
57.733
21
-128.747
0
LINE
8
BLACK
6
CONTINUOUS
10
57.733
20
-128.747
11
61.0107
21
-132.025
0
LINE
8
BLACK
6
CONTINUOUS
10
61.0107
20
-132.025
11
61.0183
21
-132.031
0
LINE
8
BLACK
6
CONTINUOUS
10
61.0183
20
-132.031
11
61.0233
21
-132.04
0
LINE
8
BLACK
6
CONTINUOUS
10
61.0233
20
-132.04
11
61.029
21
-132.048
0
LINE
8
BLACK
6
CONTINUOUS
10
61.029
20
-132.048
11
61.0299
21
-132.051
0
LINE
8
BLACK
6
CONTINUOUS
10
61.0299
20
-132.051
11
61.0316
21
-132.054
0
LINE
8
BLACK
6
CONTINUOUS
10
61.0316
20
-132.054
11
61.0333
21
-132.064
0
LINE
8
BLACK
6
CONTINUOUS
10
61.0333
20
-132.064
11
61.0359
21
-132.073
0
LINE
8
BLACK
6
CONTINUOUS
10
61.0359
20
-132.073
11
61.035
21
-132.083
0
LINE
8
BLACK
6
CONTINUOUS
10
61.035
20
-132.083
11
61.035
21
-136.652
0
LINE
8
BLACK
6
CONTINUOUS
10
61.035
20
-136.652
11
61.0351
21
-136.676
0
LINE
8
BLACK
6
CONTINUOUS
10
61.0351
20
-136.676
11
61.121
21
-137.328
0
LINE
8
BLACK
6
CONTINUOUS
10
61.121
20
-137.328
11
61.3582
21
-137.937
0
LINE
8
BLACK
6
CONTINUOUS
10
61.3582
20
-137.937
11
61.7338
21
-138.471
0
LINE
8
BLACK
6
CONTINUOUS
10
61.7338
20
-138.471
11
62.226
21
-138.9
0
LINE
8
BLACK
6
CONTINUOUS
10
62.226
20
-138.9
11
62.8064
21
-139.2
0
LINE
8
BLACK
6
CONTINUOUS
10
62.8064
20
-139.2
11
63.4416
21
-139.352
0
LINE
8
BLACK
6
CONTINUOUS
10
63.4416
20
-139.352
11
64.0947
21
-139.349
0
LINE
8
BLACK
6
CONTINUOUS
10
64.0947
20
-139.349
11
64.7282
21
-139.19
0
LINE
8
BLACK
6
CONTINUOUS
10
64.7282
20
-139.19
11
65.3055
21
-138.884
0
LINE
8
BLACK
6
CONTINUOUS
10
65.3055
20
-138.884
11
65.7931
21
-138.45
0
LINE
8
BLACK
6
CONTINUOUS
10
65.7931
20
-138.45
11
66.1631
21
-137.911
0
LINE
8
BLACK
6
CONTINUOUS
10
66.1631
20
-137.911
11
66.394
21
-137.3
0
LINE
8
BLACK
6
CONTINUOUS
10
66.394
20
-137.3
11
66.473
21
-136.647
0
LINE
8
BLACK
6
CONTINUOUS
10
66.473
20
-136.647
11
66.473
21
-136.639
0
LINE
8
BLACK
6
CONTINUOUS
10
66.473
20
-136.639
11
66.482
21
-136.614
0
LINE
8
BLACK
6
CONTINUOUS
10
66.482
20
-136.614
11
66.499
21
-136.594
0
LINE
8
BLACK
6
CONTINUOUS
10
66.499
20
-136.594
11
66.522
21
-136.58
0
LINE
8
BLACK
6
CONTINUOUS
10
66.522
20
-136.58
11
66.5414
21
-136.577
0
LINE
8
BLACK
6
CONTINUOUS
10
66.5414
20
-136.577
11
67.8147
21
-136.577
0
LINE
8
BLACK
6
CONTINUOUS
10
67.8147
20
-136.577
11
67.8246
21
-136.576
0
LINE
8
BLACK
6
CONTINUOUS
10
67.8246
20
-136.576
11
67.8342
21
-136.579
0
LINE
8
BLACK
6
CONTINUOUS
10
67.8342
20
-136.579
11
67.844
21
-136.58
0
LINE
8
BLACK
6
CONTINUOUS
10
67.844
20
-136.58
11
67.847
21
-136.582
0
LINE
8
BLACK
6
CONTINUOUS
10
67.847
20
-136.582
11
67.8502
21
-136.583
0
LINE
8
BLACK
6
CONTINUOUS
10
67.8502
20
-136.583
11
67.8583
21
-136.589
0
LINE
8
BLACK
6
CONTINUOUS
10
67.8583
20
-136.589
11
67.867
21
-136.594
0
LINE
8
BLACK
6
CONTINUOUS
10
67.867
20
-136.594
11
67.8733
21
-136.601
0
LINE
8
BLACK
6
CONTINUOUS
10
67.8733
20
-136.601
11
68.8847
21
-137.613
0
LINE
8
BLACK
6
CONTINUOUS
10
68.8847
20
-137.613
11
68.8923
21
-137.619
0
LINE
8
BLACK
6
CONTINUOUS
10
68.8923
20
-137.619
11
68.8973
21
-137.628
0
LINE
8
BLACK
6
CONTINUOUS
10
68.8973
20
-137.628
11
68.903
21
-137.636
0
LINE
8
BLACK
6
CONTINUOUS
10
68.903
20
-137.636
11
68.9039
21
-137.639
0
LINE
8
BLACK
6
CONTINUOUS
10
68.9039
20
-137.639
11
68.9056
21
-137.642
0
LINE
8
BLACK
6
CONTINUOUS
10
68.9056
20
-137.642
11
68.9073
21
-137.652
0
LINE
8
BLACK
6
CONTINUOUS
10
68.9073
20
-137.652
11
68.9099
21
-137.661
0
LINE
8
BLACK
6
CONTINUOUS
10
68.9099
20
-137.661
11
68.909
21
-137.671
0
LINE
8
BLACK
6
CONTINUOUS
10
68.909
20
-137.671
11
68.909
21
-140.944
0
LINE
8
BLACK
6
CONTINUOUS
10
68.909
20
-140.944
11
69.886
21
-142.165
0
LINE
8
BLACK
6
CONTINUOUS
10
69.886
20
-142.165
11
93.6949
21
-142.165
0
LINE
8
BLACK
6
CONTINUOUS
10
93.6949
20
-142.165
11
96.4635
21
-139.396
0
LINE
8
BLACK
6
CONTINUOUS
10
96.4635
20
-139.396
11
96.4645
21
-139.395
0
LINE
8
BLACK
6
CONTINUOUS
10
96.4645
20
-139.395
11
96.4681
21
-139.392
0
LINE
8
BLACK
6
CONTINUOUS
10
96.4681
20
-139.392
11
96.4716
21
-139.388
0
LINE
8
BLACK
6
CONTINUOUS
10
96.4716
20
-139.388
11
96.4729
21
-139.387
0
LINE
8
BLACK
6
CONTINUOUS
10
96.4729
20
-139.387
11
99.5137
21
-136.6
0
LINE
8
BLACK
6
CONTINUOUS
10
99.5137
20
-136.6
11
99.519
21
-136.594
0
LINE
8
BLACK
6
CONTINUOUS
10
99.519
20
-136.594
11
99.5291
21
-136.588
0
LINE
8
BLACK
6
CONTINUOUS
10
99.5291
20
-136.588
11
99.5388
21
-136.582
0
LINE
8
BLACK
6
CONTINUOUS
10
99.5388
20
-136.582
11
99.5405
21
-136.581
0
LINE
8
BLACK
6
CONTINUOUS
10
99.5405
20
-136.581
11
99.542
21
-136.58
0
LINE
8
BLACK
6
CONTINUOUS
10
99.542
20
-136.58
11
99.5534
21
-136.578
0
LINE
8
BLACK
6
CONTINUOUS
10
99.5534
20
-136.578
11
99.5647
21
-136.576
0
LINE
8
BLACK
6
CONTINUOUS
10
99.5647
20
-136.576
11
99.5729
21
-136.577
0
LINE
8
BLACK
6
CONTINUOUS
10
99.5729
20
-136.577
11
112.021
21
-136.577
0
LINE
8
BLACK
6
CONTINUOUS
10
112.021
20
-136.577
11
112.04
21
-136.58
0
LINE
8
BLACK
6
CONTINUOUS
10
112.04
20
-136.58
11
112.063
21
-136.594
0
LINE
8
BLACK
6
CONTINUOUS
10
112.063
20
-136.594
11
112.08
21
-136.614
0
LINE
8
BLACK
6
CONTINUOUS
10
112.08
20
-136.614
11
112.089
21
-136.639
0
LINE
8
BLACK
6
CONTINUOUS
10
112.089
20
-136.639
11
112.089
21
-136.652
0
LINE
8
BLACK
6
CONTINUOUS
10
112.089
20
-136.652
11
112.089
21
-136.676
  0
ENDSEC
  0
EOF
